<?xml version="1.0" encoding="utf-8"?>
<!-- Generator: Adobe Illustrator 22.1.0, SVG Export Plug-In . SVG Version: 6.00 Build 0)  -->
<svg version="1.1" id="Capa_1" xmlns="http://www.w3.org/2000/svg" xmlns:xlink="http://www.w3.org/1999/xlink" x="0px" y="0px"
	 viewBox="0 0 612 612" style="enable-background:new 0 0 612 612;" xml:space="preserve">
<style type="text/css">
	.st0{fill:#FFE315;}
	.st1{fill:#010002;}
	.st2{fill:none;stroke:#FFE315;stroke-width:17;stroke-miterlimit:10;}
</style>
<circle class="st0" cx="303" cy="307" r="268"/>
<g>
	<g>
		<path class="st1" d="M305,589c-26,0-51.1-3.4-75.3-10.2c-24.1-6.8-46.7-16.3-67.6-28.6s-40-27-57.2-44.1
			c-17.2-17.2-31.9-36.2-44.1-57.2C48.5,428,39,405.4,32.2,381.3C25.4,357.1,22,332,22,306s3.4-51.1,10.2-75.3s16.3-46.7,28.6-67.6
			s27-40,44.1-57.2s36.2-31.9,57.2-44.1s43.5-21.8,67.6-28.6S279,23,305,23c38.9,0,75.6,7.5,110.1,22.4s64.5,35.1,90,60.6
			c25.5,25.5,45.7,55.5,60.6,90C580.5,230.4,588,267.1,588,306c0,26-3.4,51.1-10.2,75.3c-6.8,24.1-16.3,46.7-28.6,67.6
			c-12.3,20.9-27,40-44.1,57.2c-17.2,17.2-36.2,31.9-57.2,44.1c-20.9,12.3-43.5,21.8-67.6,28.6C356.1,585.6,331,589,305,589z
			 M441.4,189.4H173.1c-2.6,0-4.9,0.8-6.8,2.5c-1.9,1.7-2.8,4.1-2.8,7.1v30c0,1.5,0.6,2.3,1.7,2.3l140.9,80.4l1.1,0.6
			c0.8,0,1.3-0.2,1.7-0.6l136.4-80.4c0.8-0.4,1.3-0.6,1.7-0.6c0.4,0,0.9-0.2,1.7-0.6c1.5,0,2.3-0.8,2.3-2.3V199c0-3-0.9-5.4-2.8-7.1
			S444,189.4,441.4,189.4z M249,310c0.4-0.4,0.6-0.9,0.6-1.7c0-1.1-0.4-1.7-1.1-1.7l-80.9-46.4c-1.1-0.4-2.1-0.4-2.8,0
			c-0.8,0-1.1,0.6-1.1,1.7v121.7c0,1.1,0.6,1.9,1.7,2.3h1.1c0.8,0,1.1-0.2,1.1-0.6L249,310z M347.4,319c-0.4-1.1-1.3-1.3-2.8-0.6
			l-31.1,18.1c-3.8,2.3-7.7,2.3-11.9,0l-27.2-15.3c-1.1-0.8-2.1-0.8-2.8,0L168,417.5c-0.4,0.4-0.6,1.1-0.6,2.3
			c0,0.4,0.4,0.9,1.1,1.7c2.3,0.8,3.8,1.1,4.5,1.1h265.5c0.8,0,1.5-0.4,2.3-1.1c0-1.5-0.2-2.4-0.6-2.8L347.4,319z M449.3,257.9h-2.3
			l-77,45.8c-0.8,0-1.1,0.6-1.1,1.7c-0.4,0.4-0.2,0.9,0.6,1.7l77,83.2c0.8,0.8,1.3,1.1,1.7,1.1h1.1c1.1-1.1,1.7-1.9,1.7-2.3v-129
			C451,259.4,450.5,258.6,449.3,257.9z"/>
	</g>
</g>
<circle class="st2" cx="306.5" cy="306.5" r="297.5"/>
</svg>
