<svg height="512pt" viewBox="-126 0 512 512.00265" width="512pt" xmlns="http://www.w3.org/2000/svg"><path d="m246.664062 399.816406c-9.609374-12.890625-22.917968-21.386718-38.183593-26.011718-8.960938-2.714844-21.355469-4.226563-27.371094-12.117188 4.953125-5.730469 8.402344-11.023438 10.644531-14.472656 14.410156-22.140625 17.640625-43.941406 19.472656-80.292969.722657-4.640625 1.085938-9.390625 1.085938-14.117187v-4.074219c19.800781-.125 35.871094-16.265625 35.871094-36.09375v-.472657c0-19.828124-16.070313-35.96875-35.871094-36.09375v-86.648437c0-.007813 0-.015625 0-.019531v-11.519532c0-26.039062-21.183594-47.222656-47.222656-47.222656h-13.539063c-8.203125-13.921875-18.953125-23.808594-31.304687-28.695312-13.574219-5.371094-33.164063.25-59.902344 17.183594-3.503906 2.21875-4.542969 6.859374-2.324219 10.363281 2.21875 3.507812 6.859375 4.546875 10.363281 2.328125 28.953126-18.339844 41.457032-17.835938 46.332032-15.90625 9.703125 3.839844 18.292968 12.164062 24.925781 24.136718v38.128907c0 13.875-11.289063 25.164062-25.164063 25.164062h-71.714843c-1.890625 0-3.738281-.191406-5.523438-.554687-.023437-.003906-.050781-.007813-.074219-.011719-12.621093-2.597656-22.140624-13.792969-22.140624-27.171875v-2.203125c4.496093-4 16.902343-14.847656 29.132812-24.539063 3.253906-2.574218 3.800781-7.300781 1.222656-10.550781-2.574218-3.253906-7.300781-3.800781-10.550781-1.222656-13.917969 11.027344-31.503906 26.386719-32.613281 27.765625-1.425782 1.777344-2.214844 4.011719-2.214844 6.292969v4.457031c0 18.464844 11.765625 34.226562 28.1875 40.199219v136.980469c0 6.066406.609375 12.113281 1.792969 18.035156-.019531.066406-.046875.128906-.0625.199218-9.105469 35.453126.839843 71.777344 25.375 95.074219.113281.113281.230469.222657.351562.328125 2.042969 1.921875 4.175781 3.761719 6.417969 5.496094.636719.488281 1.285156.953125 1.929688 1.421875l-3.144532.9375c-16.816406 5.007813-31.113281 16.019531-40.25 31.011719-2.15625 3.542968-1.035156 8.164062 2.507813 10.324218 1.222656.742188 2.570312 1.097657 3.902343 1.097657 2.53125 0 5.003907-1.28125 6.417969-3.605469 7.199219-11.808594 18.457031-20.484375 31.707031-24.429688l12.703126-3.78125c1.335937-.398437 2.648437-.878906 3.933593-1.4375 1.785157.761719 3.597657 1.453126 5.421875 2.101563 18.160156 7.910156 42.023438 7.0625 60.273438.144531 3.855468-1.460937 7.421875-3.164062 10.730468-5.03125 5.582032-.976562 11.144532-2.339844 16.601563-4.070312 8.496094 6.957031 20.742187 9 31.046875 12.074218 23.453125 6.980469 39.832031 28.949219 39.832031 53.421876v19.421874h-37.039062c-4.148438 0-7.507813 3.363282-7.507813 7.507813v27.933594h-129.898437v-27.933594c0-4.144531-3.359375-7.507813-7.507813-7.507813h-38.425781v-19.421874c0-1.988282.105469-3.984376.3125-5.941407.441406-4.125-2.542969-7.824219-6.667969-8.265625-4.121094-.441406-7.824218 2.542969-8.265625 6.667969-.265625 2.484375-.402343 5.019531-.402343 7.539063v55.214843c0 8.089844 6.585937 14.671875 14.679687 14.671875h221.070313c8.089843 0 14.671874-6.582031 14.671874-14.671875v-55.214843c0-15.359376-4.851562-29.988282-14.03125-42.300782zm-13.503906-187.652344v.472657c0 11.460937-9.199218 20.804687-20.601562 21.0625.339844-12.875.3125-25.433594.210937-34.324219-.035156-3.1875-.0625-5.910156-.097656-8.265625 11.347656.316406 20.488281 9.632813 20.488281 21.054687zm-35.871094-134.28125v98.183594h-7.617187c-2.347656 0-4.261719-1.914062-4.261719-4.265625v-5.566406c0-11.890625-4.628906-23.066406-13.035156-31.476563l-10.5625-10.558593c-4.609375-4.609375-7.148438-10.738281-7.148438-17.261719v-17.441406c0-.023438.003907-.050782.003907-.078125 0-.023438-.003907-.050781-.003907-.078125v-43.65625h10.425782c17.753906 0 32.199218 14.445312 32.199218 32.199218zm-69.527343 297.421876v-57.925782c0-4.148437-3.363281-7.511718-7.511719-7.511718s-7.511719 3.363281-7.511719 7.511718v58.414063c-5.050781-.355469-10.097656-1.230469-15.035156-2.59375v-55.820313c0-4.148437-3.363281-7.511718-7.511719-7.511718-4.148437 0-7.511718 3.363281-7.511718 7.511718v49.9375c-4-2.070312-7.835938-4.492187-11.429688-7.269531-1.050781-.8125-2.070312-1.660156-3.070312-2.523437v-64.945313c0-4.144531-3.359376-7.507813-7.507813-7.507813-4.152344 0-7.511719 3.363282-7.511719 7.507813v47.097656c-10.472656-17.351562-14.152344-39.03125-9.667968-60.679687.277343-.070313.5625-.136719.855468-.210938 5.777344-1.414062 13.6875-3.355468 21.796875-7.589844 5.492188-2.867187 9.867188-6.089843 13.375-9.863281 2.410157-2.585937 5.964844-4.066406 9.757813-4.066406h28.859375c2.414062 0 4.757812.628906 6.773437 1.816406 6.238282 3.6875 12.90625 6.65625 19.820313 8.828125 5.742187 1.800782 11.6875 3.0625 17.671875 3.742188 8.324218.953125 16.175781-3.875 19.089844-11.738282.492187-1.324218 1.234374-2.921874 2.09375-4.777343 3.492187-7.535157 8.773437-18.925781 9.585937-37.871094.179687-4.144531-3.039063-7.648437-7.183594-7.828125-4.121093-.183594-7.648437 3.039062-7.824219 7.183594-.6875 15.972656-5.035156 25.351562-8.207031 32.199218-.953125 2.050782-1.851562 3.988282-2.546875 5.867188-.507812 1.363281-1.863281 2.207031-3.308594 2.039062-5.035156-.574218-10.039062-1.632812-14.871093-3.152343-5.816407-1.824219-11.429688-4.324219-16.683594-7.425781-4.328125-2.554688-9.3125-3.90625-14.410156-3.90625h-28.859375c-7.949219 0-15.511719 3.226562-20.75 8.855468-2.328125 2.5-5.382813 4.71875-9.335938 6.78125-5.261718 2.746094-10.582031 4.324219-15.238281 5.519532-.488281-3.5-.742187-7.042969-.742187-10.59375v-134.417969h71.265624c9.5625 0 18.347657-3.359375 25.25-8.953125.597657 9.59375 4.609376 18.53125 11.464844 25.390625l10.558594 10.558593c5.570312 5.570313 8.636719 12.972657 8.636719 20.851563v5.566406c0 10.375 8.242187 18.839844 18.519531 19.246094.171875.019531.351562.023437.527344.027344.082031 0 .160156.011719.242187.011719h7.617188v49.996093c-1.664063 42.734375-2.632813 67.15625-12.578125 88.042969v-36.546875c0-4.148437-3.363282-7.511719-7.511719-7.511719s-7.511719 3.363282-7.511719 7.511719v59.371094c-1.101562 1.273437-2.296875 2.453125-3.417968 3.707031-2.636719 2.695312-5.652344 5.375-9.089844 7.871094v-70.949219c0-4.148437-3.363282-7.511719-7.511719-7.511719s-7.511719 3.363282-7.511719 7.511719v79.085937c-.003906.003907-.011718.007813-.019531.007813-4.621094 1.753906-9.449219 2.949219-14.378906 3.632813zm-102.464844 101.253906h30.914063v20.421875h-30.914063zm190.851563 20.421875v-20.421875h29.527343v20.421875zm0 0"/><path d="m78.777344 201.46875c0 4.644531-3.761719 8.40625-8.402344 8.40625s-8.40625-3.761719-8.40625-8.40625c0-4.640625 3.765625-8.402344 8.40625-8.402344s8.402344 3.761719 8.402344 8.402344zm0 0"/><path d="m146.011719 201.46875c0 4.644531-3.761719 8.40625-8.402344 8.40625s-8.402344-3.761719-8.402344-8.40625c0-4.640625 3.761719-8.402344 8.402344-8.402344s8.402344 3.761719 8.402344 8.402344zm0 0"/><path d="m119.003906 277.5625c-2.835937 1.78125-7.480468 3.933594-13.511718 4.039062-6.820313.132813-11.96875-2.480468-14.449219-4.042968-3.511719-2.207032-8.148438-1.152344-10.359375 2.359375-2.207032 3.511719-1.152344 8.148437 2.359375 10.359375 4.644531 2.921875 12.183593 6.351562 21.96875 6.351562.246093 0 .496093 0 .746093-.003906 9.496094-.171875 16.796876-3.546875 21.25-6.347656 3.507813-2.210938 4.5625-6.851563 2.351563-10.359375-2.210937-3.511719-6.847656-4.566407-10.355469-2.355469zm0 0"/></svg>