<svg height="512pt" viewBox="0 -23 512.02133 512" width="512pt" xmlns="http://www.w3.org/2000/svg"><path d="m130.988281 89.878906-29.675781-82.8125c-1.109375-3.09375-3.585938-5.503906-6.699219-6.53125-3.136719-1-6.570312-.5546872-9.28125 1.261719l-53.203125 35.5625c-2.730468 1.832031-4.480468 4.796875-4.714844 8.085937-.234374 3.285157 1.023438 6.484376 3.476563 8.679688l65.152344 59.117188c2.027343 1.832031 4.585937 2.773437 7.167969 2.773437 2.070312 0 4.117187-.578125 5.929687-1.792969l17.75-11.863281c4.054687-2.730469 5.738281-7.890625 4.097656-12.480469zm0 0" fill="#ffc107"/><path d="m462.078125 441.089844c-1.703125 3.414062-5.117187 5.761718-8.957031 5.761718l-73.8125 3.839844c-2.988282-2.773437-5.761719-5.761718-8.320313-8.320312-9.601562-10.027344-17.28125-18.132813-33.066406-18.132813-16 0-23.46875 8.105469-33.28125 18.132813-4.054687 4.265625-8.535156 8.960937-13.867187 12.800781l-61.011719 3.199219s-.214844 0-.429688 0c-1.917969 0-3.625-.425782-5.117187-1.28125-1.496094-.851563-2.773438-2.132813-3.839844-3.625l-32.640625-49.066406-93.226563-139.308594c-20.90625-31.144532-14.933593-72.53125 12.160157-97.066406l-42.027344-62.71875c-1.492187-2.347657-2.132813-5.121094-1.492187-7.894532.636718-2.773437 2.132812-5.332031 4.476562-6.824218l13.441406-8.960938c4.054688-2.773438 9.386719-2.347656 13.011719 1.066406l10.027344 9.171875 4.054687-2.558593-4.695312-13.011719c-1.703125-4.480469 0-9.601563 4.054687-12.375l13.441407-8.960938c4.90625-3.199219 11.519531-1.917969 14.71875 2.988281l41.8125 62.71875c33.066406-15.785156 73.601562-5.332031 94.292968 25.8125l184.960938 276.90625 4.695312 7.042969c2.132813 3.199219 2.34375 7.253907.636719 10.664063zm0 0" fill="#cfd8dc"/><path d="m422.1875 459.226562c-1.707031 3.199219-5.335938 5.332032-9.175781 5.332032h-.636719l-11.734375-.640625c-8.746094-2.988281-15.574219-7.894531-21.332031-13.226563-2.988282-2.773437-5.761719-5.761718-8.320313-8.320312-9.601562-10.027344-17.28125-18.132813-33.066406-18.132813-16 0-23.46875 8.105469-33.28125 18.132813-4.054687 4.265625-8.535156 8.960937-13.867187 12.800781-1.28125 1.066406-2.773438 2.132813-4.054688 3.199219l-6.824219-.425782c-3.414062-.214843-6.613281-1.921874-8.535156-4.695312-1.917969-2.984375-3.839844-5.757812-5.757813-8.746094-27.09375-40.53125-56.109374-83.839844-64.640624-96.640625-3.199219-4.90625-1.921876-11.519531 2.984374-14.71875l4.480469-3.199219c4.480469-2.988281 8.746094-5.972656 12.800781-8.960937 38.828126-28.371094 54.613282-50.132813 46.933594-64.851563-2.773437-4.90625-.851562-11.09375 3.839844-14.082031 4.90625-2.984375 11.308594-1.492187 14.507812 3.199219l133.972657 200.535156 1.492187 2.132813c2.132813 3.414062 2.347656 7.679687.214844 11.308593zm0 0" fill="#ffca28"/><path d="m286.570312 245.550781-2.902343-4.585937c-10.601563-14.890625-36.648438-13.484375-61.949219 3.261718-16.109375 10.6875-27.265625 24.832032-29.847656 37.804688-1.363282 6.910156-.253906 13.289062 3.179687 18.386719l23.464844 35.179687c1.621094 2.410156 4.140625 4.074219 7.019531 4.585938.621094.109375 1.238282.171875 1.855469.171875 2.242187 0 4.460937-.703125 6.292969-2.070313 31.511718-22.976562 71.277344-57.578125 52.886718-92.734375zm0 0" fill="#ffc107"/><path d="m103.1875 115.992188c-2.578125 0-5.140625-.9375-7.167969-2.773438l-65.128906-59.09375c-2.453125-2.195312-3.710937-5.417969-3.476563-8.679688.234376-3.289062 1.984376-6.253906 4.714844-8.085937l53.203125-35.542969c2.730469-1.8359372 6.167969-2.304687 9.28125-1.257812 3.113281 1.023437 5.589844 3.433594 6.699219 6.527344l29.675781 82.792968c1.664063 4.609375-.042969 9.75-4.117187 12.460938l-17.75 11.859375c-1.792969 1.195312-3.863282 1.792969-5.933594 1.792969zm-47.847656-68.480469 48.875 44.332031 3.882812-2.601562-22.273437-62.101563zm0 0"/><path d="m413.035156 464.515625c-3.457031 0-6.828125-1.664063-8.875-4.734375l-138.113281-206.679688c-3.285156-4.886718-1.960937-11.519531 2.945313-14.785156 4.886718-3.304687 11.519531-1.941406 14.785156 2.945313l138.109375 206.675781c3.285156 4.886719 1.964843 11.523438-2.941407 14.785156-1.816406 1.195313-3.863281 1.792969-5.910156 1.792969zm0 0"/><path d="m280.382812 457.964844c-3.453124 0-6.824218-1.664063-8.875-4.734375l-70.441406-105.410157c-1.578125-2.34375-2.15625-5.226562-1.601562-8 .554687-2.773437 2.179687-5.226562 4.523437-6.78125 40.664063-27.160156 62.765625-49.152343 65.730469-65.324218.9375-5.140625-.171875-9.707032-3.5-14.355469-1.644531-2.285156-15.464844-2.882813-32.726562 8.636719-8 5.355468-14.675782 12.054687-18.28125 18.371094-2.753907 4.839843-2.730469 7.785156-2.410157 8.277343 1.300781.042969 12.351563-.066406 21.929688-6.101562 5.011719-3.117188 11.5625-1.621094 14.699219 3.347656 3.136718 4.992187 1.640624 11.5625-3.351563 14.699219-16.9375 10.667968-42.367187 12.863281-51.027344-.105469-5.527343-8.277344-4.972656-19.160156 1.601563-30.679687 5.269531-9.234376 14.140625-18.300782 24.957031-25.535157 25.21875-16.851562 51.265625-18.238281 61.933594-3.304687 6.71875 9.386718 9.109375 19.6875 7.101562 30.589844-3.882812 21.226562-24.9375 44.628906-66.046875 73.214843l64.554688 96.621094c3.285156 4.882813 1.960937 11.519531-2.945313 14.785156-1.726562 1.214844-3.796875 1.789063-5.824219 1.789063zm0 0"/><path d="m419.585938 467.03125c-24.984376 0-38.0625-13.695312-48.554688-24.679688-9.664062-10.113281-17.28125-18.09375-33.152344-18.09375-15.875 0-23.511718 7.980469-33.152344 18.09375-10.496093 11.007813-23.574218 24.679688-48.554687 24.679688-25.003906 0-38.082031-13.695312-48.578125-24.679688-9.664062-10.113281-17.300781-18.09375-33.171875-18.09375-15.914063 0-23.550781 7.980469-33.238281 18.09375-10.539063 10.984376-23.617188 24.660157-48.640625 24.660157-25.023438 0-38.121094-13.675781-48.640625-24.660157-9.683594-10.113281-17.320313-18.09375-33.234375-18.09375-5.890625 0-10.667969-4.777343-10.667969-10.664062 0-5.890625 4.777344-10.667969 10.667969-10.667969 25.023437 0 38.121093 13.675781 48.640625 24.660157 9.683594 10.113281 17.320312 18.09375 33.234375 18.09375 15.914062 0 23.554687-7.980469 33.238281-18.09375 10.539062-10.984376 23.617188-24.660157 48.640625-24.660157 25.003906 0 38.078125 13.695313 48.574219 24.683594 9.664062 10.109375 17.300781 18.089844 33.175781 18.089844 15.871094 0 23.488281-7.980469 33.152344-18.089844 10.496093-10.988281 23.570312-24.683594 48.574219-24.683594 25.003906 0 38.058593 13.695313 48.554687 24.683594 9.664063 10.109375 17.28125 18.089844 33.152344 18.089844 15.871093 0 23.507812-7.980469 33.171875-18.089844 10.496094-11.007813 23.574218-24.683594 48.578125-24.683594 5.886719 0 10.664062 4.777344 10.664062 10.667969 0 5.886719-4.777343 10.664062-10.664062 10.664062-15.871094 0-23.511719 7.980469-33.152344 18.09375-10.539063 10.984376-23.617187 24.679688-48.617187 24.679688zm0 0"/><path d="m221.761719 331.84375c-3.457031 0-6.828125-1.664062-8.898438-4.738281l-17.769531-26.621094c-3.265625-4.90625-1.941406-11.542969 2.945312-14.804687 4.882813-3.285157 11.519532-1.941407 14.804688 2.941406l17.769531 26.625c3.265625 4.90625 1.941407 11.542968-2.945312 14.804687-1.8125 1.214844-3.882813 1.792969-5.90625 1.792969zm0 0"/><path d="m55.871094 121.964844c-3.457032 0-6.824219-1.664063-8.875-4.734375-3.285156-4.886719-1.960938-11.519531 2.945312-14.804688l88.703125-59.242187c4.90625-3.308594 11.542969-1.964844 14.785157 2.941406 3.285156 4.886719 1.960937 11.519531-2.945313 14.804688l-88.703125 59.222656c-1.8125 1.214844-3.882812 1.8125-5.910156 1.8125zm0 0"/><path d="m229.3125 458.328125c-3.457031 0-6.828125-1.664063-8.875-4.734375l-125.953125-188.503906c-20.863281-31.210938-15.019531-72.617188 12.140625-97l-41.878906-62.722656c-3.285156-4.882813-1.960938-11.519532 2.921875-14.78125l13.3125-8.898438c4.054687-2.730469 9.472656-2.324219 13.097656.960938l10.136719 9.171874 3.882812-2.601562-4.609375-12.84375c-1.664062-4.605469.042969-9.746094 4.097657-12.457031l13.308593-8.894531c2.347657-1.578126 5.226563-2.175782 8-1.601563 2.773438.554687 5.226563 2.175781 6.785157 4.542969l41.898437 62.722656c32.917969-15.746094 73.410156-5.335938 94.273437 25.898438l189.632813 283.816406c3.285156 4.886718 1.960937 11.519531-2.945313 14.785156-4.929687 3.265625-11.5625 1.917969-14.785156-2.945312l-189.609375-283.816407c-7.914062-11.839843-19.96875-19.90625-33.941406-22.679687-13.972656-2.75-28.203125.042968-40.042969 7.957031-2.367187 1.601563-5.25 2.199219-8.023437 1.601563-2.769531-.554688-5.226563-2.175782-6.78125-4.523438l-34.816407-52.136719.449219 1.234375c1.640625 4.609375-.042969 9.75-4.117187 12.460938l-17.75 11.859375c-4.054688 2.710937-9.472656 2.328125-13.101563-.957031l-.957031-.898438 34.816406 52.117188c3.285156 4.90625 1.960938 11.519531-2.945312 14.804687-24.449219 16.34375-31.0625 49.539063-14.71875 73.984375l125.929687 188.480469c3.285157 4.886719 1.960938 11.519531-2.945312 14.785156-1.8125 1.214844-3.859375 1.8125-5.886719 1.8125zm0 0"/></svg>